<?xml version="1.0" encoding="UTF-8" standalone="no"?>
<!-- Created with Inkscape (http://www.inkscape.org/) -->

<svg
   xmlns:dc="http://purl.org/dc/elements/1.1/"
   xmlns:cc="http://creativecommons.org/ns#"
   xmlns:rdf="http://www.w3.org/1999/02/22-rdf-syntax-ns#"
   xmlns:svg="http://www.w3.org/2000/svg"
   xmlns="http://www.w3.org/2000/svg"
   xmlns:sodipodi="http://sodipodi.sourceforge.net/DTD/sodipodi-0.dtd"
   xmlns:inkscape="http://www.inkscape.org/namespaces/inkscape"
   width="3779.5276"
   height="3779.5276"
   viewBox="0 0 1000 1000"
   version="1.1"
   id="svg8"
   inkscape:version="0.92.5 (2060ec1f9f, 2020-04-08)"
   sodipodi:docname="logo-inkscape.svg"
   inkscape:export-filename="/home/chris/hugo/kollegenrunde/redaktion/logo40-dark.png"
   inkscape:export-xdpi="1.02"
   inkscape:export-ydpi="1.02">
  <defs
     id="defs2" />
  <sodipodi:namedview
     id="base"
     pagecolor="#ffffff"
     bordercolor="#666666"
     borderopacity="1.0"
     inkscape:pageopacity="0.0"
     inkscape:pageshadow="2"
     inkscape:zoom="0.04"
     inkscape:cx="-2023.3554"
     inkscape:cy="-357.52586"
     inkscape:document-units="mm"
     inkscape:current-layer="layer2"
     showgrid="false"
     units="px"
     inkscape:snap-global="true"
     showguides="true"
     inkscape:guide-bbox="true"
     inkscape:snap-page="true"
     inkscape:object-paths="true"
     inkscape:window-width="1920"
     inkscape:window-height="1015"
     inkscape:window-x="0"
     inkscape:window-y="0"
     inkscape:window-maximized="1">
    <sodipodi:guide
       position="3.7128713,563.11881"
       orientation="1,0"
       id="guide819"
       inkscape:locked="false" />
    <sodipodi:guide
       position="700.49504,804.45545"
       orientation="1,0"
       id="guide1002"
       inkscape:locked="false" />
    <sodipodi:guide
       position="257.42574,700.49505"
       orientation="0,1"
       id="guide1004"
       inkscape:locked="false" />
    <sodipodi:guide
       position="787.1287,165.84158"
       orientation="0,1"
       id="guide1006"
       inkscape:locked="false" />
    <sodipodi:guide
       position="257.42574,136.13864"
       orientation="1,0"
       id="guide1008"
       inkscape:locked="false" />
  </sodipodi:namedview>
  <metadata
     id="metadata5">
    <rdf:RDF>
      <cc:Work
         rdf:about="">
        <dc:format>image/svg+xml</dc:format>
        <dc:type
           rdf:resource="http://purl.org/dc/dcmitype/StillImage" />
        <dc:title></dc:title>
      </cc:Work>
    </rdf:RDF>
  </metadata>
  <g
     inkscape:groupmode="layer"
     id="layer3"
     inkscape:label="canvas"
     style="display:inline"
     sodipodi:insensitive="true">
    <rect
       ry="114.80363"
       y="0"
       x="-0.00013327599"
       height="1000"
       width="1000.0001"
       id="rect947-1"
       style="display:inline;opacity:1;fill:#00449e;fill-opacity:1;stroke:none;stroke-width:69.4526062;stroke-miterlimit:4;stroke-dasharray:none;stroke-opacity:1" />
  </g>
  <g
     inkscape:label="Ebene 1"
     inkscape:groupmode="layer"
     id="layer1"
     transform="translate(0,703)"
     style="display:none;opacity:0.52100004"
     sodipodi:insensitive="true">
    <rect
       ry="114.80363"
       y="-703"
       x="-8.8817842e-14"
       height="1000"
       width="1000.0001"
       id="rect947"
       style="opacity:1;fill:#e1e8ed;fill-opacity:1;stroke:none;stroke-width:69.4526062;stroke-miterlimit:4;stroke-dasharray:none;stroke-opacity:1" />
    <circle
       cy="-13.64354"
       cx="273.81598"
       id="circle823"
       style="fill:none;fill-opacity:1;stroke:#005ec0;stroke-width:66.14583588;stroke-miterlimit:4;stroke-dasharray:none;stroke-opacity:1"
       r="0" />
    <circle
       style="fill:none;fill-opacity:1;stroke:#005ec0;stroke-width:66.14583588;stroke-miterlimit:4;stroke-dasharray:none;stroke-opacity:1"
       id="circle825"
       cx="741.75433"
       cy="-3.6059284"
       r="0" />
  </g>
  <g
     inkscape:groupmode="layer"
     id="layer2"
     inkscape:label="Ebene 2"
     style="display:inline;opacity:0.851">
    <g
       id="g1070"
       style="">
      <rect
         ry="103.87161"
         y="47.611828"
         x="47.611839"
         height="904.77637"
         width="904.77637"
         id="rect817"
         style="display:inline;opacity:1;fill:none;fill-opacity:1;stroke:#5f5f5f;stroke-width:35.97515869;stroke-miterlimit:4;stroke-dasharray:none;stroke-opacity:1" />
      <g
         id="g1064"
         style="">
        <path
           style="color:#000000;font-style:normal;font-variant:normal;font-weight:normal;font-stretch:normal;font-size:medium;line-height:normal;font-family:sans-serif;font-variant-ligatures:normal;font-variant-position:normal;font-variant-caps:normal;font-variant-numeric:normal;font-variant-alternates:normal;font-feature-settings:normal;text-indent:0;text-align:start;text-decoration:none;text-decoration-line:none;text-decoration-style:solid;text-decoration-color:#000000;letter-spacing:normal;word-spacing:normal;text-transform:none;writing-mode:lr-tb;direction:ltr;text-orientation:mixed;dominant-baseline:auto;baseline-shift:baseline;text-anchor:start;white-space:normal;shape-padding:0;clip-rule:nonzero;display:inline;overflow:visible;visibility:visible;opacity:1;isolation:auto;mix-blend-mode:normal;color-interpolation:sRGB;color-interpolation-filters:linearRGB;solid-color:#000000;solid-opacity:1;vector-effect:none;fill:#5f5f5f;fill-opacity:1;fill-rule:nonzero;stroke:none;stroke-width:747.51794434;stroke-linecap:round;stroke-linejoin:bevel;stroke-miterlimit:4;stroke-dasharray:none;stroke-dashoffset:0;stroke-opacity:1;color-rendering:auto;image-rendering:auto;shape-rendering:auto;text-rendering:auto;enable-background:accumulate"
           d="m 3055.6504,1045.875 c -38.4156,2.9826 -74.3936,5.8113 -116.9277,9.0566 -145.6208,11.1108 -313.7377,23.6529 -493.0997,36.9122 -72.0113,5.3234 -150.1521,11.037 -225.0605,16.5449 -73.3972,36.7278 -192.3641,77.2662 -333.9805,111.0996 -183.2066,43.7696 -398.431,76.3187 -619.1269,123.7129 v -164.668 c -156.0991,11.565 -307.1138,22.8067 -435.74416,32.6211 -72.74155,5.5501 -139.85043,10.7426 -199.89453,15.4844 -42.65048,3.3682 -76.87225,6.1978 -111.88086,9.0781 v 2023.8828 a 373.79635,373.79635 0 1 0 747.51955,0 V 2614.5625 L 2449.6797,3552.416 A 373.79635,373.79635 0 1 0 2914.252,2966.7891 L 1720.7773,2020.0098 c 111.9157,-22.6227 225.973,-46.3423 339.5,-73.4649 196.5205,-46.9504 392.0292,-103.5744 575.8555,-213.9785 174.7622,-104.9602 347.5612,-287.7609 405.0508,-525.2949 a 373.79635,373.79635 0 0 0 12.0918,-63.086 373.79635,373.79635 0 0 0 2.9531,-58.0371 c 0.2187,-13.5281 -0.063,-26.9314 -0.5781,-40.2734 z"
           id="path1058"
           transform="scale(0.26458333)"
           inkscape:connector-curvature="0" />
        <path
           style="color:#000000;font-style:normal;font-variant:normal;font-weight:normal;font-stretch:normal;font-size:medium;line-height:normal;font-family:sans-serif;font-variant-ligatures:normal;font-variant-position:normal;font-variant-caps:normal;font-variant-numeric:normal;font-variant-alternates:normal;font-feature-settings:normal;text-indent:0;text-align:start;text-decoration:none;text-decoration-line:none;text-decoration-style:solid;text-decoration-color:#000000;letter-spacing:normal;word-spacing:normal;text-transform:none;writing-mode:lr-tb;direction:ltr;text-orientation:mixed;dominant-baseline:auto;baseline-shift:baseline;text-anchor:start;white-space:normal;shape-padding:0;clip-rule:nonzero;display:inline;overflow:visible;visibility:visible;opacity:1;isolation:auto;mix-blend-mode:normal;color-interpolation:sRGB;color-interpolation-filters:linearRGB;solid-color:#000000;solid-opacity:1;vector-effect:none;fill:#5f5f5f;fill-opacity:1;fill-rule:nonzero;stroke:none;stroke-width:747.51794434;stroke-linecap:round;stroke-linejoin:bevel;stroke-miterlimit:4;stroke-dasharray:none;stroke-dashoffset:0;stroke-opacity:1;color-rendering:auto;image-rendering:auto;shape-rendering:auto;text-rendering:auto;enable-background:accumulate"
           d="m 1780.334,106.60938 c -17.3218,-0.0599 -34.6822,0.15365 -52.0703,0.65039 -208.6577,5.96084 -421.286,52.75009 -619.0899,158.08984 -251.55006,133.9621 -469.85799,378.99884 -564.60349,697.92773 a 373.79635,373.79635 0 0 0 -20.93554,82.61916 373.79635,373.79635 0 0 0 -3.95704,82.6973 c 33.05448,-2.7083 64.25734,-5.2991 103.74415,-8.4161 60.16874,-4.7494 127.34976,-9.9446 200.16015,-15.5 141.98697,-10.8335 306.46287,-23.0991 480.79497,-35.9922 37.5966,-66.2966 88.4311,-107.48187 156.1601,-143.55073 89.8325,-47.83998 216.578,-73.91152 347.6348,-70.15039 18.7224,0.53733 37.5284,1.68424 56.332,3.46289 150.4285,14.22905 295.4857,70.88142 372.3496,127.53711 6.1852,4.55901 11.7923,8.82954 16.9785,12.88671 60.8726,-4.47939 125.088,-9.17146 183.9297,-13.52148 179.3152,-13.25632 347.3509,-25.79425 492.834,-36.89453 41.2124,-3.14448 75.9162,-5.87552 113.252,-8.77344 C 3000.7644,706.27308 2850.7135,509.81575 2680.3789,384.26367 2465.4185,225.81826 2206.7907,139.96854 1934.8965,114.25 c -50.9802,-4.82223 -102.5972,-7.46086 -154.5625,-7.64062 z"
           id="path1014"
           transform="scale(0.26458333)"
           inkscape:connector-curvature="0" />
      </g>
    </g>
  </g>
</svg>
